HIERARCHY
ROOT root
{
	OFFSET	0	13.1	24.9
	CHANNELS 6  Xposition Yposition Zposition Xrotation Yrotation Zrotation
	JOINT spine_1
	{
		OFFSET	0	9.99999	0
		CHANNELS 3  Xrotation Yrotation Zrotation
		JOINT spine_2
		{
			OFFSET	0	112	-10
			CHANNELS 3  Xrotation Yrotation Zrotation
			JOINT spine_3
			{
				OFFSET	0	206.5	19.3
				CHANNELS 3  Xrotation Yrotation Zrotation
				JOINT spine_4
				{
					OFFSET	0	110.4	14.6
					CHANNELS 3  Xrotation Yrotation Zrotation
					JOINT neck_1
					{
						OFFSET	0	71.8	-50.3
						CHANNELS 3  Xrotation Yrotation Zrotation
						JOINT neck_2
						{
							OFFSET	0	86.2	-25.8
							CHANNELS 3  Xrotation Yrotation Zrotation
							JOINT head_ee
							{
								OFFSET	0	179.8	-8.7
								CHANNELS 3  Xrotation Yrotation Zrotation
								End Site
								{
									OFFSET	1	0	0
								}
							}
						}
					}
					JOINT left_clavicle
					{
						OFFSET	-43.2	22.4	-70.8
						CHANNELS 3  Xrotation Yrotation Zrotation
						JOINT left_shoulder
						{
							OFFSET	-93.9	-5.79999	48.7
							CHANNELS 3  Xrotation Yrotation Zrotation
							JOINT left_elbow
							{
								OFFSET	-291.4	-30.8	15.2
								CHANNELS 3  Xrotation Yrotation Zrotation
								JOINT left_lowarm_twist
								{
									OFFSET	-110.7	-3.89999	13.6
									CHANNELS 3  Xrotation Yrotation Zrotation
									JOINT left_hand
									{
										OFFSET	-110.7	-3.89999	13.6
										CHANNELS 3  Xrotation Yrotation Zrotation
										JOINT left_ee
										{
											OFFSET	-80.8	-5.10001	12.1
											CHANNELS 3  Xrotation Yrotation Zrotation
											End Site
											{
												OFFSET	1	0	0
											}
										}
									}
								}
							}
						}
					}
					JOINT right_clavicle
					{
						OFFSET	43.2	22.4	-70.8
						CHANNELS 3  Xrotation Yrotation Zrotation
						JOINT right_shoulder
						{
							OFFSET	93.9	-5.79999	48.7
							CHANNELS 3  Xrotation Yrotation Zrotation
							JOINT right_elbow
							{
								OFFSET	291.4	-30.8	15.2
								CHANNELS 3  Xrotation Yrotation Zrotation
								JOINT right_lowarm_twist
								{
									OFFSET	110.7	-3.89999	13.6
									CHANNELS 3  Xrotation Yrotation Zrotation
									JOINT right_hand
									{
										OFFSET	110.7	-3.89999	13.6
										CHANNELS 3  Xrotation Yrotation Zrotation
										JOINT right_ee
										{
											OFFSET	80.8	-5.10001	12.1
											CHANNELS 3  Xrotation Yrotation Zrotation
											End Site
											{
												OFFSET	1	0	0
											}
										}
									}
								}
							}
						}
					}
				}
			}
		}
	}
	JOINT left_hip
	{
		OFFSET	-82.8	-127.5	0.300001
		CHANNELS 3  Xrotation Yrotation Zrotation
		JOINT left_knee
		{
			OFFSET	-28.2	-396.7	2.2
			CHANNELS 3  Xrotation Yrotation Zrotation
			JOINT left_ankle
			{
				OFFSET	-11.7	-411.3	35.4
				CHANNELS 3  Xrotation Yrotation Zrotation
				JOINT left_toes
				{
					OFFSET	0	-60	-88.6
					CHANNELS 3  Xrotation Yrotation Zrotation
					JOINT left_foot_ee
					{
						OFFSET	-22.5	-16.5	-42.2
						CHANNELS 3  Xrotation Yrotation Zrotation
						End Site
						{
							OFFSET	1	0	0
						}
					}
				}
			}
		}
	}
	JOINT right_hip
	{
		OFFSET	82.8	-127.5	0.300001
		CHANNELS 3  Xrotation Yrotation Zrotation
		JOINT right_knee
		{
			OFFSET	28.2	-396.7	2.2
			CHANNELS 3  Xrotation Yrotation Zrotation
			JOINT right_ankle
			{
				OFFSET	11.7	-411.3	35.4
				CHANNELS 3  Xrotation Yrotation Zrotation
				JOINT right_toes
				{
					OFFSET	0	-60	-88.6
					CHANNELS 3  Xrotation Yrotation Zrotation
					JOINT right_foot_ee
					{
						OFFSET	22.5	-16.5	-42.2
						CHANNELS 3  Xrotation Yrotation Zrotation
						End Site
						{
							OFFSET	1	0	0
						}
					}
				}
			}
		}
	}
}
MOTION
Frames: 16
Frame Time: 0.02
3177.02 653.055 -1669.29 -7.37371583472 53.3663004878 4.96049041073 1.21652 0.828874 3.92706 1.22492 0.577507 3.97175 1.26688 -0.181375 4.00936 1.24474 0.45359 3.98778 -4.28518 12.0231 -5.4487 -3.92761 26.1433 -3.69672 -0.0 0.0 -0.0 0.356309 24.7802 3.33092 -42.0295 -11.0014 60.7139 0.709844 -19.3735 0.121169 -74.6672 -7.14235 5.3197 1.12767 -5.03805 5.4739 -0.0 0.0 -0.0 13.0182 23.5735 -25.9825 15.3459 29.7738 -58.6133 2.13198 46.5577 -0.91733 54.4014 1.30162 6.56818 2.257 8.01614 -11.919 0.0 0.0 0.0 32.0773 6.32676 -13.7366 -0.036616 0.00150577 0.00541731 -18.0462 -0.979001 2.75001 -16.7301 0.0 0.0 -0.0 0.0 -0.0 -11.7386 12.3577 6.57107 -15.2714 -0.321981 -2.31453 32.7363 6.43238 4.27028 -7.1614 0.0 0.0 0.0 0.0 0.0 
3118.86518825 649.769 -1661.73087501 -7.93235749623 52.4218046721 5.76455717157 1.14921 0.706043 3.82999 1.15726 0.461087 3.86708 1.19024 -0.281427 3.88426 1.16935 0.335078 3.88001 -0.915429 11.6254 -4.25904 -0.40459 24.2736 -3.26471 -0.0 0.0 -0.0 0.799004 23.5697 3.81691 -40.8706 -12.4932 60.8575 0.73283 -19.952 0.128903 -75.3784 -7.23321 5.31806 1.40082 -6.41503 6.74668 -0.0 0.0 -0.0 13.5195 22.8011 -27.2263 12.727 26.8956 -58.2167 2.16367 46.9793 -0.940414 53.5505 1.23455 6.48223 2.47636 11.4232 -11.9237 0.0 0.0 0.0 32.9607 5.17192 -13.9963 -7.20693 0.228946 1.08163 -16.8627 1.96295 2.54889 -15.7531 0.0 0.0 -0.0 0.0 -0.0 -11.1146 12.5334 6.60222 -19.4236 -0.302051 -2.95116 32.4498 2.91061 4.19303 -6.32471 0.0 0.0 0.0 0.0 0.0 
3093.87972468 653.891 -1665.79958163 -7.60242336466 52.0433174843 6.77601659574 1.06917 0.818543 3.82381 1.07712 0.573753 3.86805 1.11805 -0.175665 3.90637 1.09703 0.443002 3.88517 -1.37094 11.2359 -4.00222 -0.931421 23.4075 -2.93045 -0.0 0.0 -0.0 1.03369 23.3011 4.11643 -40.8885 -13.3418 60.31 0.864562 -23.1842 0.177348 -75.1737 -7.20706 5.31865 1.21606 -6.1814 5.59163 -0.0 0.0 -0.0 13.3621 23.0697 -26.8326 10.594 25.8892 -59.2422 2.16903 47.0499 -0.944335 53.0124 1.19281 6.42738 3.04039 13.8887 -14.6798 0.0 0.0 0.0 33.76 4.94215 -14.4717 -14.2149 0.319686 2.15244 -9.14324 3.72299 1.3666 -15.0256 0.0 0.0 -0.0 0.0 -0.0 -10.9474 13.7521 7.61712 -20.0503 -0.295038 -3.04705 31.849 -0.727686 4.0993 -5.57679 0.0 0.0 0.0 0.0 0.0 
3077.69703997 657.655 -1663.81102096 -8.6694554387 52.0164978471 7.88162931195 1.14923 0.873034 3.81319 1.1571 0.628808 3.86092 1.20154 -0.114425 3.91004 1.18056 0.504055 3.87915 -0.909081 10.6112 -4.59033 -0.440684 22.7172 -3.72609 -0.0 0.0 -0.0 1.19425 22.8743 4.30535 -41.0024 -14.1909 58.4935 0.960554 -25.4461 0.216881 -75.2465 -7.21636 5.31845 1.02325 -6.02427 4.35231 -0.0 0.0 -0.0 12.9418 23.5849 -25.8043 9.00427 25.2472 -59.7545 2.17515 47.1305 -0.948823 52.264 1.13562 6.35046 3.56321 15.5559 -17.5082 0.0 0.0 0.0 34.1393 5.09969 -14.6043 -19.2297 0.304009 2.92146 -2.05818 4.68007 0.303279 -13.5915 0.0 0.0 -0.0 0.0 -0.0 -10.5826 14.6238 7.97294 -20.4562 -0.289936 -3.10913 31.4456 -3.61127 4.04406 -4.90782 0.0 0.0 0.0 0.0 0.0 
3026.69368483 663.664 -1670.34060352 -6.15527796693 54.1360427276 5.58274585913 1.0296 0.77131 4.01348 1.03841 0.514574 4.05434 1.07721 -0.272449 4.07773 1.05421 0.374424 4.06965 -0.132778 9.90821 -6.77591 0.51086 23.1704 -6.34677 -0.0 0.0 -0.0 1.15938 22.2006 4.20555 -40.5071 -15.0937 55.247 1.0886 -28.3355 0.274816 -77.0134 -7.44187 5.30998 0.817038 -5.0997 3.34798 -0.0 0.0 -0.0 12.5653 24.5651 -24.834 4.35765 24.2037 -60.8287 2.09956 46.1193 -0.893872 49.8165 0.955702 6.09382 3.41832 11.7076 -18.3608 0.0 0.0 0.0 32.6161 3.55488 -12.6658 -25.7497 0.18326 3.91414 2.97339 5.62063 -0.432331 -10.5453 0.0 0.0 -0.0 0.0 -0.0 -8.63278 17.8013 5.42642 -30.4083 -0.028211 -4.6121 29.9358 -21.1969 4.01825 -3.39232 0.0 0.0 0.0 0.0 0.0 
2998.43275527 666.694 -1674.23074095 -7.10478331941 55.6182860974 6.16031915131 0.960301 0.669606 4.02091 0.969199 0.412604 4.05529 1.00083 -0.378386 4.05862 0.977946 0.266801 4.06747 0.470346 10.0825 -6.37315 1.12976 23.1266 -6.01994 -0.0 0.0 -0.0 1.29075 21.71 4.35445 -40.1308 -15.9168 54.2692 1.12561 -29.1428 0.292608 -78.3908 -7.61735 5.29852 0.76228 -3.70965 3.56129 -0.0 0.0 -0.0 12.6045 24.6477 -24.9154 1.98179 23.6565 -61.4308 1.96021 44.1531 -0.795087 48.0116 0.830168 5.89984 3.0489 9.73767 -16.6682 0.0 0.0 0.0 31.6867 2.65758 -10.8703 -27.8247 0.121219 4.22653 7.30367 5.63552 -1.04839 -8.70598 0.0 0.0 -0.0 0.0 -0.0 -7.1283 19.2502 4.25669 -34.2397 0.141534 -5.17539 29.586 -28.5349 4.15392 -3.48507 0.0 0.0 0.0 0.0 0.0 
2998.46403641 666.694 -1675.25512929 -7.04597537363 55.2921086606 6.08892311339 0.960301 0.669606 4.02091 0.969199 0.412604 4.05529 1.00083 -0.378386 4.05862 0.977946 0.266801 4.06747 0.470346 10.0825 -6.37315 1.12976 23.1266 -6.01994 -0.0 0.0 -0.0 1.29075 21.71 4.35445 -40.1308 -15.9168 54.2692 1.12561 -29.1428 0.292608 -78.3908 -7.61735 5.29852 0.76228 -3.70965 3.56129 -0.0 0.0 -0.0 12.6045 24.6477 -24.9154 1.98179 23.6565 -61.4308 1.96021 44.1531 -0.795087 48.0116 0.830168 5.89984 3.0489 9.73767 -16.6682 0.0 0.0 0.0 31.6867 2.65758 -10.8703 -27.8247 0.121219 4.22653 7.30367 5.63552 -1.04839 -8.70598 0.0 0.0 -0.0 0.0 -0.0 -7.1283 19.2502 4.25669 -34.2397 0.141534 -5.17539 29.586 -28.5349 4.15392 -3.48507 0.0 0.0 0.0 0.0 0.0 
2980.29199799 672.537 -1674.4403518 -7.4952723113 56.3448825499 6.55096162938 1.20215 0.616751 4.0321 1.21112 0.359145 4.0631 1.23835 -0.415636 4.05772 1.21545 0.229873 4.07244 1.36232 11.1678 -4.7601 2.0233 23.6652 -4.33702 -0.0 0.0 -0.0 1.43084 21.2115 4.51874 -37.1604 -16.9363 52.8843 0.995133 -26.2409 0.231955 -80.1714 -7.84358 5.2774 0.920125 -2.41212 5.16539 -0.0 0.0 -0.0 12.3418 23.8772 -24.3898 -1.05676 22.7139 -62.0402 1.86723 42.7637 -0.731133 46.9333 0.758115 5.7821 2.7906 8.34365 -15.4815 0.0 0.0 0.0 27.6893 1.31346 -8.53303 -29.5374 0.0615062 4.48259 12.9711 8.99695 -1.82446 -3.0263 0.0 0.0 -0.0 0.0 -0.0 -5.60912 19.7566 3.12205 -37.8123 0.333485 -5.68957 28.023 -29.5332 3.99382 -3.60665 0.0 0.0 0.0 0.0 0.0 
2954.69645756 684.85 -1677.99339467 -4.10288171299 57.1655957288 3.61314078455 0.934459 0.408124 3.8072 0.942506 0.165216 3.82542 0.955455 -0.580177 3.78484 0.93547 0.0243937 3.8289 0.112424 11.321 -4.48918 0.685171 23.8257 -3.76323 -0.0 0.0 -0.0 1.42859 20.8185 4.48774 -34.971 -17.9319 52.2806 0.953959 -25.2933 0.214055 -81.4221 -8.00196 5.25833 1.09316 -1.47507 6.71894 -0.0 0.0 -0.0 12.1564 23.3163 -24.0183 -5.27026 21.7103 -63.0175 1.78245 41.4399 -0.674288 45.4329 0.661586 5.6161 2.60925 7.34875 -14.6516 0.0 0.0 0.0 23.6401 -1.15749 -5.90836 -30.6135 0.0200796 4.64254 16.9465 11.3124 -2.35077 0.947374 -0.0 -0.0 -0.0 0.0 -0.0 -3.51762 20.1259 2.3823 -40.3084 0.486506 -6.0414 25.0888 -27.9009 3.58359 -4.63234 0.0 0.0 0.0 0.0 0.0 
2926.85353094 693.261 -1682.378459 -3.88150673787 55.9228009473 3.16993516434 0.877758 0.271093 3.68188 0.885298 0.0364184 3.69165 0.889376 -0.684954 3.62782 0.871029 -0.103819 3.69037 -1.16997 11.3779 -4.34967 -0.68574 23.9222 -3.33298 -0.0 0.0 -0.0 1.7036 20.3812 4.85811 -32.6428 -19.0657 52.0626 0.953174 -25.2751 0.21372 -82.2705 -8.1091 5.24342 1.17616 -0.589386 7.64126 -0.0 0.0 -0.0 12.0265 22.9085 -23.7582 -7.99536 21.0436 -63.6441 1.72492 40.5095 -0.636559 44.3723 0.595998 5.49728 2.45005 6.66314 -13.8404 0.0 0.0 0.0 21.455 -2.98037 -4.13479 -29.9319 0.04667 4.54131 19.0428 12.9749 -2.6246 3.43377 -0.0 -0.0 -0.0 0.0 -0.0 -2.11355 20.369 1.84741 -42.2701 0.617471 -6.31311 23.0496 -26.4739 3.29201 -5.33629 0.0 0.0 0.0 0.0 0.0 
2912.31581055 697.483 -1679.11353732 -3.65168068346 55.4869803687 3.01369789828 0.943085 0.148132 3.50545 0.949917 -0.0750892 3.50777 0.946627 -0.755102 3.42646 0.930303 -0.204828 3.5026 -2.0687 11.4106 -4.26369 -1.64696 23.9827 -3.04329 -0.0 0.0 -0.0 1.90559 19.7444 5.11585 -30.5931 -20.0722 51.6772 0.960143 -25.4366 0.216704 -82.8728 -8.18502 5.23185 1.2285 0.043013 8.2513 -0.0 0.0 -0.0 11.939 22.6077 -23.585 -9.90446 20.5816 -64.0459 1.68389 39.8299 -0.610095 43.6449 0.552301 5.41511 2.3291 6.18365 -13.2068 0.0 0.0 0.0 19.6258 -4.36144 -2.75662 -29.4566 0.0644962 4.47055 20.4462 14.1869 -2.80734 5.13989 -0.0 -0.0 -0.0 0.0 -0.0 -0.561304 20.6821 1.13302 -43.6426 0.71462 -6.50053 21.6286 -25.4462 3.08906 -5.84205 0.0 0.0 0.0 0.0 0.0 
2884.80271776 697.696 -1679.19798468 -1.42394155623 54.6921794484 1.34492483129 0.865179 0.0225925 3.26259 0.871081 -0.184948 3.25743 0.861661 -0.818971 3.15832 0.847876 -0.310174 3.24791 -5.69811 12.2207 -2.2533 -5.5791 24.2299 -0.0386108 -0.0 0.0 -0.0 2.17745 17.5142 5.39872 -25.0082 -22.6382 49.8078 1.03015 -27.035 0.247657 -83.5933 -8.27564 5.21696 1.23684 1.12999 8.74547 -0.0 0.0 -0.0 11.7111 23.9384 -22.9391 -13.6257 19.591 -64.0481 1.37059 34.1727 -0.42131 42.7614 0.50063 5.31457 2.07247 4.46674 -12.1592 0.0 0.0 0.0 16.9981 -6.13183 -1.53272 -24.8687 0.206167 3.78089 18.0668 20.4539 -2.55521 5.80836 -0.0 -0.0 -0.0 0.0 -0.0 2.9884 21.0042 -0.27663 -46.9648 0.968218 -6.94429 18.0068 -25.7062 2.61407 -7.24454 0.0 0.0 0.0 0.0 0.0 
2884.67618843 697.696 -1664.37024039 -1.53584371646 57.5972726981 1.47963075428 0.865179 0.0225925 3.26259 0.871081 -0.184948 3.25743 0.861661 -0.818971 3.15832 0.847876 -0.310174 3.24791 -5.69811 12.2207 -2.2533 -5.5791 24.2299 -0.0386108 -0.0 0.0 -0.0 2.17745 17.5142 5.39872 -25.0082 -22.6382 49.8078 1.03015 -27.035 0.247657 -83.5933 -8.27564 5.21696 1.23684 1.12999 8.74547 -0.0 0.0 -0.0 11.7111 23.9384 -22.9391 -13.6257 19.591 -64.0481 1.37059 34.1727 -0.42131 42.7614 0.50063 5.31457 2.07247 4.46674 -12.1592 0.0 0.0 0.0 16.9981 -6.13183 -1.53272 -24.8687 0.206167 3.78089 18.0668 20.4539 -2.55521 5.80836 -0.0 -0.0 -0.0 0.0 -0.0 2.9884 21.0042 -0.27663 -46.9648 0.968218 -6.94429 18.0068 -25.7062 2.61407 -7.24454 0.0 0.0 0.0 0.0 0.0 
2871.9270189 706.169 -1655.4287993 -0.632753069066 59.3580587262 0.999215964895 0.734824 -0.0741883 2.9635 0.739671 -0.26253 2.95279 0.727074 -0.84207 2.84242 0.716004 -0.382801 2.93963 -6.88084 12.2357 -2.06383 -6.84632 24.2174 0.414525 -0.0 0.0 -0.0 2.30742 16.1503 5.52664 -20.792 -24.1292 48.4823 1.10359 -28.664 0.281967 -83.9132 -8.3158 5.20998 1.15399 1.57405 8.36562 -0.0 0.0 -0.0 11.5274 23.7891 -22.535 -14.9842 19.1581 -64.4125 1.20576 30.8486 -0.332683 42.01 0.457918 5.22846 1.88912 3.67466 -11.2283 0.0 0.0 0.0 14.4837 -6.63258 -1.13333 -24.3396 0.21894 3.7007 17.2167 22.4555 -2.46473 5.98941 -0.0 -0.0 -0.0 0.0 -0.0 4.19629 21.356 -0.337874 -48.3103 1.07822 -7.11979 16.9531 -26.1238 2.47712 -7.65495 0.0 0.0 0.0 0.0 0.0 
2863.29709692 707.932 -1640.62904082 0.434522113472 62.8190495222 0.102855316568 0.59071 -0.121471 2.77215 0.594936 -0.297556 2.75882 0.581499 -0.844671 2.64321 0.571992 -0.416791 2.74335 -7.76298 12.2374 -1.91586 -7.79126 24.1836 0.757115 -0.0 0.0 -0.0 2.3886 15.2187 5.60538 -17.8492 -25.1937 47.5429 1.15939 -29.869 0.309247 -84.1612 -8.34691 5.20442 1.08708 1.91242 8.05164 -0.0 0.0 -0.0 11.319 23.7089 -22.069 -16.046 18.8188 -64.4349 1.08982 28.3622 -0.275391 41.487 0.428857 5.16819 1.75982 3.10179 -10.5793 0.0 0.0 0.0 12.334 -7.05037 -0.690551 -23.9676 0.227477 3.64425 16.5855 23.8009 -2.39591 6.09501 -0.0 -0.0 -0.0 0.0 -0.0 5.78724 21.6287 -0.655053 -49.1594 1.14975 -7.22921 16.237 -26.4032 2.38279 -7.94246 0.0 0.0 0.0 0.0 0.0 
2848.67931645 712.321 -1632.06113317 2.50075249054 63.5442027816 -2.06976469825 0.409671 -0.157387 2.63471 0.413474 -0.324663 2.61937 0.399537 -0.851184 2.49848 0.391103 -0.446055 2.60146 -8.71998 12.2479 -1.75 -8.81609 24.1575 1.13579 -0.0 0.0 -0.0 2.47725 14.2213 5.69519 -14.9607 -26.1616 46.3896 1.23349 -31.4251 0.347023 -84.3328 -8.36843 5.20048 1.00904 2.1818 7.63622 -0.0 0.0 -0.0 11.1543 23.5467 -21.7104 -17.4779 18.4748 -64.6959 0.980089 25.8964 -0.225344 40.9258 0.398291 5.10325 1.65904 2.56301 -10.1125 0.0 0.0 0.0 11.0815 -7.23317 0.236198 -23.6976 0.233442 3.60325 16.1152 24.4416 -2.33992 6.06235 -0.0 -0.0 -0.0 0.0 -0.0 9.60522 21.3423 -3.88782 -49.2513 1.15759 -7.24099 15.7029 -26.2843 2.3073 -8.18104 0.0 0.0 0.0 0.0 0.0 
